<svg xmlns="http://www.w3.org/2000/svg" xmlns:xlink="http://www.w3.org/1999/xlink" contentStyleType="text/css" height="3155px" preserveAspectRatio="none" style="width:1324px;height:3155px;background:#FFFFFF;" version="1.1" viewBox="0 0 1324 3155" width="1324px" zoomAndPan="magnify"><defs/><g><text fill="#000000" font-family="sans-serif" font-size="14" font-weight="bold" lengthAdjust="spacing" textLength="486" x="417.5" y="32.9951">Mapa  - Autoatendimento Secretaria Acad&#234;mica FATEC Jacare&#237;</text><rect fill="#F1F1F1" height="36.2969" rx="12.5" ry="12.5" style="stroke:#181818;stroke-width:1.5;" width="483" x="10" y="479.5234"/><text fill="#191970" font-family="sans-serif" font-size="14" lengthAdjust="spacing" textLength="4" x="20" y="502.5186">&#160;</text><text fill="#191970" font-family="sans-serif" font-size="14" font-weight="bold" lengthAdjust="spacing" textLength="454" x="24" y="502.5186">Sprint 1 &#8212; Base do Backend + Diagrama de Casos de Uso</text><rect fill="#F1F1F1" height="36.2969" rx="12.5" ry="12.5" style="stroke:#181818;stroke-width:1.5;" width="252" x="543" y="85.4453"/><text fill="#000000" font-family="sans-serif" font-size="14" lengthAdjust="spacing" textLength="232" x="553" y="108.4404">Configura&#231;&#227;o e Ambiente (INF-01)</text><rect fill="#F1F1F1" height="36.2969" rx="12.5" ry="12.5" style="stroke:#181818;stroke-width:1.5;" width="192" x="845" y="57.2969"/><text fill="#000000" font-family="sans-serif" font-size="14" lengthAdjust="spacing" textLength="172" x="855" y="80.292">Reposit&#243;rio + TypeScript</text><path d="M795,103.5938 L805,103.5938 C820,103.5938 820,75.4453 835,75.4453 L845,75.4453 " fill="none" style="stroke:#181818;stroke-width:1.0;"/><rect fill="#F1F1F1" height="36.2969" rx="12.5" ry="12.5" style="stroke:#181818;stroke-width:1.5;" width="400" x="845" y="113.5938"/><text fill="#000000" font-family="sans-serif" font-size="14" lengthAdjust="spacing" textLength="380" x="855" y="136.5889">Docker Compose (PostgreSQL + Backend + Frontend)</text><path d="M795,103.5938 L805,103.5938 C820,103.5938 820,131.7422 835,131.7422 L845,131.7422 " fill="none" style="stroke:#181818;stroke-width:1.0;"/><path d="M493,497.6719 L503,497.6719 C518,497.6719 518,103.5938 533,103.5938 L543,103.5938 " fill="none" style="stroke:#181818;stroke-width:1.0;"/><rect fill="#F1F1F1" height="36.2969" rx="12.5" ry="12.5" style="stroke:#181818;stroke-width:1.5;" width="193" x="543" y="282.4844"/><text fill="#000000" font-family="sans-serif" font-size="14" lengthAdjust="spacing" textLength="173" x="553" y="305.4795">Banco de Dados (BD-01)</text><rect fill="#F1F1F1" height="36.2969" rx="12.5" ry="12.5" style="stroke:#181818;stroke-width:1.5;" width="171" x="786" y="169.8906"/><text fill="#000000" font-family="sans-serif" font-size="14" lengthAdjust="spacing" textLength="151" x="796" y="192.8857">Modelagem MER/DER</text><path d="M736,300.6328 L746,300.6328 C761,300.6328 761,188.0391 776,188.0391 L786,188.0391 " fill="none" style="stroke:#181818;stroke-width:1.0;"/><rect fill="#F1F1F1" height="36.2969" rx="12.5" ry="12.5" style="stroke:#181818;stroke-width:1.5;" width="230" x="786" y="226.1875"/><text fill="#000000" font-family="sans-serif" font-size="14" lengthAdjust="spacing" textLength="210" x="796" y="249.1826">pgcrypto, enums, tabela users</text><path d="M736,300.6328 L746,300.6328 C761,300.6328 761,244.3359 776,244.3359 L786,244.3359 " fill="none" style="stroke:#181818;stroke-width:1.0;"/><rect fill="#F1F1F1" height="36.2969" rx="12.5" ry="12.5" style="stroke:#181818;stroke-width:1.5;" width="191" x="786" y="282.4844"/><text fill="#000000" font-family="sans-serif" font-size="14" lengthAdjust="spacing" textLength="171" x="796" y="305.4795">Tabela navigation_nodes</text><path d="M736,300.6328 L746,300.6328 C761,300.6328 761,300.6328 776,300.6328 L786,300.6328 " fill="none" style="stroke:#181818;stroke-width:1.0;"/><rect fill="#F1F1F1" height="36.2969" rx="12.5" ry="12.5" style="stroke:#181818;stroke-width:1.5;" width="409" x="786" y="338.7813"/><text fill="#000000" font-family="sans-serif" font-size="14" lengthAdjust="spacing" textLength="389" x="796" y="361.7764">Tabelas: questions, interaction_logs, satisfaction_ratings</text><path d="M736,300.6328 L746,300.6328 C761,300.6328 761,356.9297 776,356.9297 L786,356.9297 " fill="none" style="stroke:#181818;stroke-width:1.0;"/><rect fill="#F1F1F1" height="36.2969" rx="12.5" ry="12.5" style="stroke:#181818;stroke-width:1.5;" width="252" x="786" y="395.0781"/><text fill="#000000" font-family="sans-serif" font-size="14" lengthAdjust="spacing" textLength="232" x="796" y="418.0732">ORM Prisma (&#237;ndices, updated_at)</text><path d="M736,300.6328 L746,300.6328 C761,300.6328 761,413.2266 776,413.2266 L786,413.2266 " fill="none" style="stroke:#181818;stroke-width:1.0;"/><path d="M493,497.6719 L503,497.6719 C518,497.6719 518,300.6328 533,300.6328 L543,300.6328 " fill="none" style="stroke:#181818;stroke-width:1.0;"/><rect fill="#F1F1F1" height="36.2969" rx="12.5" ry="12.5" style="stroke:#181818;stroke-width:1.5;" width="255" x="543" y="451.375"/><text fill="#000000" font-family="sans-serif" font-size="14" lengthAdjust="spacing" textLength="235" x="553" y="474.3701">Navega&#231;&#227;o Conversacional (RF01)</text><rect fill="#F1F1F1" height="36.2969" rx="12.5" ry="12.5" style="stroke:#181818;stroke-width:1.5;" width="142" x="848" y="451.375"/><text fill="#000000" font-family="sans-serif" font-size="14" lengthAdjust="spacing" textLength="122" x="858" y="474.3701">GET /tree e /:slug</text><path d="M798,469.5234 L808,469.5234 C823,469.5234 823,469.5234 838,469.5234 L848,469.5234 " fill="none" style="stroke:#181818;stroke-width:1.0;"/><path d="M493,497.6719 L503,497.6719 C518,497.6719 518,469.5234 533,469.5234 L543,469.5234 " fill="none" style="stroke:#181818;stroke-width:1.0;"/><rect fill="#F1F1F1" height="36.2969" rx="12.5" ry="12.5" style="stroke:#181818;stroke-width:1.5;" width="277" x="543" y="507.6719"/><text fill="#000000" font-family="sans-serif" font-size="14" lengthAdjust="spacing" textLength="257" x="553" y="530.667">Reposit&#243;rio de Conhecimento (RF02)</text><rect fill="#F1F1F1" height="36.2969" rx="12.5" ry="12.5" style="stroke:#181818;stroke-width:1.5;" width="112" x="870" y="507.6719"/><text fill="#000000" font-family="sans-serif" font-size="14" lengthAdjust="spacing" textLength="92" x="880" y="530.667">GET consulta</text><path d="M820,525.8203 L830,525.8203 C845,525.8203 845,525.8203 860,525.8203 L870,525.8203 " fill="none" style="stroke:#181818;stroke-width:1.0;"/><path d="M493,497.6719 L503,497.6719 C518,497.6719 518,525.8203 533,525.8203 L543,525.8203 " fill="none" style="stroke:#181818;stroke-width:1.0;"/><rect fill="#F1F1F1" height="36.2969" rx="12.5" ry="12.5" style="stroke:#181818;stroke-width:1.5;" width="201" x="543" y="592.1172"/><text fill="#000000" font-family="sans-serif" font-size="14" lengthAdjust="spacing" textLength="181" x="553" y="615.1123">Autentica&#231;&#227;o (RF03/RF09)</text><rect fill="#F1F1F1" height="36.2969" rx="12.5" ry="12.5" style="stroke:#181818;stroke-width:1.5;" width="181" x="794" y="563.9688"/><text fill="#000000" font-family="sans-serif" font-size="14" lengthAdjust="spacing" textLength="161" x="804" y="586.9639">POST /auth/login &#8594; JWT</text><path d="M744,610.2656 L754,610.2656 C769,610.2656 769,582.1172 784,582.1172 L794,582.1172 " fill="none" style="stroke:#181818;stroke-width:1.0;"/><rect fill="#F1F1F1" height="36.2969" rx="12.5" ry="12.5" style="stroke:#181818;stroke-width:1.5;" width="233" x="794" y="620.2656"/><text fill="#000000" font-family="sans-serif" font-size="14" lengthAdjust="spacing" textLength="213" x="804" y="643.2607">Bcrypt + vari&#225;veis de ambiente</text><path d="M744,610.2656 L754,610.2656 C769,610.2656 769,638.4141 784,638.4141 L794,638.4141 " fill="none" style="stroke:#181818;stroke-width:1.0;"/><path d="M493,497.6719 L503,497.6719 C518,497.6719 518,610.2656 533,610.2656 L543,610.2656 " fill="none" style="stroke:#181818;stroke-width:1.0;"/><rect fill="#F1F1F1" height="36.2969" rx="12.5" ry="12.5" style="stroke:#181818;stroke-width:1.5;" width="229" x="543" y="676.5625"/><text fill="#000000" font-family="sans-serif" font-size="14" lengthAdjust="spacing" textLength="209" x="553" y="699.5576">RBAC e Prote&#231;&#227;o (RF10/RF11)</text><rect fill="#F1F1F1" height="36.2969" rx="12.5" ry="12.5" style="stroke:#181818;stroke-width:1.5;" width="186" x="822" y="676.5625"/><text fill="#000000" font-family="sans-serif" font-size="14" lengthAdjust="spacing" textLength="166" x="832" y="699.5576">Middlewares: JWT + role</text><path d="M772,694.7109 L782,694.7109 C797,694.7109 797,694.7109 812,694.7109 L822,694.7109 " fill="none" style="stroke:#181818;stroke-width:1.0;"/><path d="M493,497.6719 L503,497.6719 C518,497.6719 518,694.7109 533,694.7109 L543,694.7109 " fill="none" style="stroke:#181818;stroke-width:1.0;"/><rect fill="#F1F1F1" height="36.2969" rx="12.5" ry="12.5" style="stroke:#181818;stroke-width:1.5;" width="299" x="543" y="732.8594"/><text fill="#000000" font-family="sans-serif" font-size="14" lengthAdjust="spacing" textLength="279" x="553" y="755.8545">Gest&#227;o de Perguntas - Secret&#225;ria (RF06)</text><rect fill="#F1F1F1" height="36.2969" rx="12.5" ry="12.5" style="stroke:#181818;stroke-width:1.5;" width="199" x="892" y="732.8594"/><text fill="#000000" font-family="sans-serif" font-size="14" lengthAdjust="spacing" textLength="179" x="902" y="755.8545">GET perguntas (lista + ID)</text><path d="M842,751.0078 L852,751.0078 C867,751.0078 867,751.0078 882,751.0078 L892,751.0078 " fill="none" style="stroke:#181818;stroke-width:1.0;"/><path d="M493,497.6719 L503,497.6719 C518,497.6719 518,751.0078 533,751.0078 L543,751.0078 " fill="none" style="stroke:#181818;stroke-width:1.0;"/><rect fill="#F1F1F1" height="36.2969" rx="12.5" ry="12.5" style="stroke:#181818;stroke-width:1.5;" width="196" x="543" y="789.1563"/><text fill="#000000" font-family="sans-serif" font-size="14" lengthAdjust="spacing" textLength="176" x="553" y="812.1514">Ferramentas Dev (INF-02)</text><rect fill="#F1F1F1" height="36.2969" rx="12.5" ry="12.5" style="stroke:#181818;stroke-width:1.5;" width="125" x="789" y="789.1563"/><text fill="#000000" font-family="sans-serif" font-size="14" lengthAdjust="spacing" textLength="105" x="799" y="812.1514">Swagger + Jest</text><path d="M739,807.3047 L749,807.3047 C764,807.3047 764,807.3047 779,807.3047 L789,807.3047 " fill="none" style="stroke:#181818;stroke-width:1.0;"/><path d="M493,497.6719 L503,497.6719 C518,497.6719 518,807.3047 533,807.3047 L543,807.3047 " fill="none" style="stroke:#181818;stroke-width:1.0;"/><rect fill="#F1F1F1" height="36.2969" rx="12.5" ry="12.5" style="stroke:#181818;stroke-width:1.5;" width="116" x="543" y="845.4531"/><text fill="#000000" font-family="sans-serif" font-size="14" lengthAdjust="spacing" textLength="96" x="553" y="868.4482">UML (ARQ-01)</text><rect fill="#F1F1F1" height="36.2969" rx="12.5" ry="12.5" style="stroke:#181818;stroke-width:1.5;" width="207" x="709" y="845.4531"/><text fill="#000000" font-family="sans-serif" font-size="14" lengthAdjust="spacing" textLength="187" x="719" y="868.4482">Diagrama de Casos de Uso</text><path d="M659,863.6016 L669,863.6016 C684,863.6016 684,863.6016 699,863.6016 L709,863.6016 " fill="none" style="stroke:#181818;stroke-width:1.0;"/><path d="M493,497.6719 L503,497.6719 C518,497.6719 518,863.6016 533,863.6016 L543,863.6016 " fill="none" style="stroke:#181818;stroke-width:1.0;"/><rect fill="#F1F1F1" height="36.2969" rx="12.5" ry="12.5" style="stroke:#181818;stroke-width:1.5;" width="132" x="543" y="901.75"/><text fill="#000000" font-family="sans-serif" font-size="14" lengthAdjust="spacing" textLength="112" x="553" y="924.7451">Testes Unit&#225;rios</text><rect fill="#F1F1F1" height="36.2969" rx="12.5" ry="12.5" style="stroke:#181818;stroke-width:1.5;" width="367" x="725" y="901.75"/><text fill="#000000" font-family="sans-serif" font-size="14" lengthAdjust="spacing" textLength="347" x="735" y="924.7451">Autentica&#231;&#227;o: login (RF09), valida&#231;&#227;o token (RF11)</text><path d="M675,919.8984 L685,919.8984 C700,919.8984 700,919.8984 715,919.8984 L725,919.8984 " fill="none" style="stroke:#181818;stroke-width:1.0;"/><path d="M493,497.6719 L503,497.6719 C518,497.6719 518,919.8984 533,919.8984 L543,919.8984 " fill="none" style="stroke:#181818;stroke-width:1.0;"/><rect fill="#F1F1F1" height="36.2969" rx="12.5" ry="12.5" style="stroke:#181818;stroke-width:1.5;" width="432" x="10" y="1661.7578"/><text fill="#008000" font-family="sans-serif" font-size="14" lengthAdjust="spacing" textLength="4" x="20" y="1684.7529">&#160;</text><text fill="#008000" font-family="sans-serif" font-size="14" font-weight="bold" lengthAdjust="spacing" textLength="408" x="24" y="1684.7529">Sprint 2 &#8212; Rotas Push, Logs + Diagrama de Classes</text><rect fill="#F1F1F1" height="36.2969" rx="12.5" ry="12.5" style="stroke:#181818;stroke-width:1.5;" width="167" x="492" y="1070.6406"/><text fill="#000000" font-family="sans-serif" font-size="14" lengthAdjust="spacing" textLength="147" x="502" y="1093.6357">Gest&#227;o Admin (RF04)</text><rect fill="#F1F1F1" height="36.2969" rx="12.5" ry="12.5" style="stroke:#181818;stroke-width:1.5;" width="259" x="709" y="958.0469"/><text fill="#000000" font-family="sans-serif" font-size="14" lengthAdjust="spacing" textLength="235" x="719" y="981.042">GET n&#243;s de navega&#231;&#227;o (lista + ID)</text><path d="M659,1088.7891 L669,1088.7891 C684,1088.7891 684,976.1953 699,976.1953 L709,976.1953 " fill="none" style="stroke:#181818;stroke-width:1.0;"/><rect fill="#F1F1F1" height="36.2969" rx="12.5" ry="12.5" style="stroke:#181818;stroke-width:1.5;" width="191" x="709" y="1014.3438"/><text fill="#000000" font-family="sans-serif" font-size="14" lengthAdjust="spacing" textLength="167" x="719" y="1037.3389">GET usu&#225;rios (lista + ID)</text><path d="M659,1088.7891 L669,1088.7891 C684,1088.7891 684,1032.4922 699,1032.4922 L709,1032.4922 " fill="none" style="stroke:#181818;stroke-width:1.0;"/><rect fill="#F1F1F1" height="36.2969" rx="12.5" ry="12.5" style="stroke:#181818;stroke-width:1.5;" width="187" x="709" y="1070.6406"/><text fill="#000000" font-family="sans-serif" font-size="14" lengthAdjust="spacing" textLength="163" x="719" y="1093.6357">GET logs de navega&#231;&#227;o</text><path d="M659,1088.7891 L669,1088.7891 C684,1088.7891 684,1088.7891 699,1088.7891 L709,1088.7891 " fill="none" style="stroke:#181818;stroke-width:1.0;"/><rect fill="#F1F1F1" height="36.2969" rx="12.5" ry="12.5" style="stroke:#181818;stroke-width:1.5;" width="229" x="709" y="1126.9375"/><text fill="#000000" font-family="sans-serif" font-size="14" lengthAdjust="spacing" textLength="209" x="719" y="1149.9326">CRUD de usu&#225;rios (Secret&#225;ria)</text><path d="M659,1088.7891 L669,1088.7891 C684,1088.7891 684,1145.0859 699,1145.0859 L709,1145.0859 " fill="none" style="stroke:#181818;stroke-width:1.0;"/><rect fill="#F1F1F1" height="36.2969" rx="12.5" ry="12.5" style="stroke:#181818;stroke-width:1.5;" width="291" x="709" y="1183.2344"/><text fill="#000000" font-family="sans-serif" font-size="14" lengthAdjust="spacing" textLength="271" x="719" y="1206.2295">Gerenciamento de documentos oficiais</text><path d="M659,1088.7891 L669,1088.7891 C684,1088.7891 684,1201.3828 699,1201.3828 L709,1201.3828 " fill="none" style="stroke:#181818;stroke-width:1.0;"/><path d="M442,1679.9063 L452,1679.9063 C467,1679.9063 467,1088.7891 482,1088.7891 L492,1088.7891 " fill="none" style="stroke:#181818;stroke-width:1.0;"/><rect fill="#F1F1F1" height="36.2969" rx="12.5" ry="12.5" style="stroke:#181818;stroke-width:1.5;" width="255" x="492" y="1267.6797"/><text fill="#000000" font-family="sans-serif" font-size="14" lengthAdjust="spacing" textLength="235" x="502" y="1290.6748">Navega&#231;&#227;o Conversacional (RF01)</text><rect fill="#F1F1F1" height="36.2969" rx="12.5" ry="12.5" style="stroke:#181818;stroke-width:1.5;" width="342" x="797" y="1239.5313"/><text fill="#000000" font-family="sans-serif" font-size="14" lengthAdjust="spacing" textLength="322" x="807" y="1262.5264">POST, PUT, PATCH, DELETE n&#243;s de navega&#231;&#227;o</text><path d="M747,1285.8281 L757,1285.8281 C772,1285.8281 772,1257.6797 787,1257.6797 L797,1257.6797 " fill="none" style="stroke:#181818;stroke-width:1.0;"/><rect fill="#F1F1F1" height="36.2969" rx="12.5" ry="12.5" style="stroke:#181818;stroke-width:1.5;" width="174" x="797" y="1295.8281"/><text fill="#000000" font-family="sans-serif" font-size="14" lengthAdjust="spacing" textLength="154" x="807" y="1318.8232">Seed de dados iniciais</text><path d="M747,1285.8281 L757,1285.8281 C772,1285.8281 772,1313.9766 787,1313.9766 L797,1313.9766 " fill="none" style="stroke:#181818;stroke-width:1.0;"/><path d="M442,1679.9063 L452,1679.9063 C467,1679.9063 467,1285.8281 482,1285.8281 L492,1285.8281 " fill="none" style="stroke:#181818;stroke-width:1.0;"/><rect fill="#F1F1F1" height="36.2969" rx="12.5" ry="12.5" style="stroke:#181818;stroke-width:1.5;" width="276" x="492" y="1352.125"/><text fill="#000000" font-family="sans-serif" font-size="14" lengthAdjust="spacing" textLength="256" x="502" y="1375.1201">Encaminhamento &#224; Secretaria (RF05)</text><rect fill="#F1F1F1" height="36.2969" rx="12.5" ry="12.5" style="stroke:#181818;stroke-width:1.5;" width="256" x="818" y="1352.125"/><text fill="#000000" font-family="sans-serif" font-size="14" lengthAdjust="spacing" textLength="236" x="828" y="1375.1201">POST /questions (d&#250;vida + e-mail)</text><path d="M768,1370.2734 L778,1370.2734 C793,1370.2734 793,1370.2734 808,1370.2734 L818,1370.2734 " fill="none" style="stroke:#181818;stroke-width:1.0;"/><path d="M442,1679.9063 L452,1679.9063 C467,1679.9063 467,1370.2734 482,1370.2734 L492,1370.2734 " fill="none" style="stroke:#181818;stroke-width:1.0;"/><rect fill="#F1F1F1" height="36.2969" rx="12.5" ry="12.5" style="stroke:#181818;stroke-width:1.5;" width="299" x="492" y="1436.5703"/><text fill="#000000" font-family="sans-serif" font-size="14" lengthAdjust="spacing" textLength="279" x="502" y="1459.5654">Gest&#227;o de Perguntas - Secret&#225;ria (RF06)</text><rect fill="#F1F1F1" height="36.2969" rx="12.5" ry="12.5" style="stroke:#181818;stroke-width:1.5;" width="215" x="841" y="1408.4219"/><text fill="#000000" font-family="sans-serif" font-size="14" lengthAdjust="spacing" textLength="195" x="851" y="1431.417">PATCH /questions/:id/status</text><path d="M791,1454.7188 L801,1454.7188 C816,1454.7188 816,1426.5703 831,1426.5703 L841,1426.5703 " fill="none" style="stroke:#181818;stroke-width:1.0;"/><rect fill="#F1F1F1" height="36.2969" rx="12.5" ry="12.5" style="stroke:#181818;stroke-width:1.5;" width="217" x="841" y="1464.7188"/><text fill="#000000" font-family="sans-serif" font-size="14" lengthAdjust="spacing" textLength="197" x="851" y="1487.7139">PATCH /questions/:id/assign</text><path d="M791,1454.7188 L801,1454.7188 C816,1454.7188 816,1482.8672 831,1482.8672 L841,1482.8672 " fill="none" style="stroke:#181818;stroke-width:1.0;"/><path d="M442,1679.9063 L452,1679.9063 C467,1679.9063 467,1454.7188 482,1454.7188 L492,1454.7188 " fill="none" style="stroke:#181818;stroke-width:1.0;"/><rect fill="#F1F1F1" height="36.2969" rx="12.5" ry="12.5" style="stroke:#181818;stroke-width:1.5;" width="229" x="492" y="1521.0156"/><text fill="#000000" font-family="sans-serif" font-size="14" lengthAdjust="spacing" textLength="209" x="502" y="1544.0107">Avalia&#231;&#227;o de Satisfa&#231;&#227;o (RF07)</text><rect fill="#F1F1F1" height="36.2969" rx="12.5" ry="12.5" style="stroke:#181818;stroke-width:1.5;" width="234" x="771" y="1521.0156"/><text fill="#000000" font-family="sans-serif" font-size="14" lengthAdjust="spacing" textLength="214" x="781" y="1544.0107">POST /sessions/:id/satisfaction</text><path d="M721,1539.1641 L731,1539.1641 C746,1539.1641 746,1539.1641 761,1539.1641 L771,1539.1641 " fill="none" style="stroke:#181818;stroke-width:1.0;"/><path d="M442,1679.9063 L452,1679.9063 C467,1679.9063 467,1539.1641 482,1539.1641 L492,1539.1641 " fill="none" style="stroke:#181818;stroke-width:1.0;"/><rect fill="#F1F1F1" height="36.2969" rx="12.5" ry="12.5" style="stroke:#181818;stroke-width:1.5;" width="205" x="492" y="1633.6094"/><text fill="#000000" font-family="sans-serif" font-size="14" lengthAdjust="spacing" textLength="185" x="502" y="1656.6045">Logs de Navega&#231;&#227;o (RF08)</text><rect fill="#F1F1F1" height="36.2969" rx="12.5" ry="12.5" style="stroke:#181818;stroke-width:1.5;" width="96" x="747" y="1577.3125"/><text fill="#000000" font-family="sans-serif" font-size="14" lengthAdjust="spacing" textLength="76" x="757" y="1600.3076">POST /logs</text><path d="M697,1651.7578 L707,1651.7578 C722,1651.7578 722,1595.4609 737,1595.4609 L747,1595.4609 " fill="none" style="stroke:#181818;stroke-width:1.0;"/><rect fill="#F1F1F1" height="36.2969" rx="12.5" ry="12.5" style="stroke:#181818;stroke-width:1.5;" width="256" x="747" y="1633.6094"/><text fill="#000000" font-family="sans-serif" font-size="14" lengthAdjust="spacing" textLength="236" x="757" y="1656.6045">PATCH /logs/:sessionId/navigation</text><path d="M697,1651.7578 L707,1651.7578 C722,1651.7578 722,1651.7578 737,1651.7578 L747,1651.7578 " fill="none" style="stroke:#181818;stroke-width:1.0;"/><rect fill="#F1F1F1" height="36.2969" rx="12.5" ry="12.5" style="stroke:#181818;stroke-width:1.5;" width="247" x="747" y="1689.9063"/><text fill="#000000" font-family="sans-serif" font-size="14" lengthAdjust="spacing" textLength="227" x="757" y="1712.9014">PATCH /logs/:sessionId/question</text><path d="M697,1651.7578 L707,1651.7578 C722,1651.7578 722,1708.0547 737,1708.0547 L747,1708.0547 " fill="none" style="stroke:#181818;stroke-width:1.0;"/><path d="M442,1679.9063 L452,1679.9063 C467,1679.9063 467,1651.7578 482,1651.7578 L492,1651.7578 " fill="none" style="stroke:#181818;stroke-width:1.0;"/><rect fill="#F1F1F1" height="36.2969" rx="12.5" ry="12.5" style="stroke:#181818;stroke-width:1.5;" width="151" x="492" y="1830.6484"/><text fill="#000000" font-family="sans-serif" font-size="14" lengthAdjust="spacing" textLength="131" x="502" y="1853.6436">Frontend - Chatbot</text><rect fill="#F1F1F1" height="36.2969" rx="12.5" ry="12.5" style="stroke:#181818;stroke-width:1.5;" width="285" x="693" y="1746.2031"/><text fill="#000000" font-family="sans-serif" font-size="14" lengthAdjust="spacing" textLength="265" x="703" y="1769.1982">Layout de chat (bolhas, op&#231;&#245;es, scroll)</text><path d="M643,1848.7969 L653,1848.7969 C668,1848.7969 668,1764.3516 683,1764.3516 L693,1764.3516 " fill="none" style="stroke:#181818;stroke-width:1.0;"/><rect fill="#F1F1F1" height="36.2969" rx="12.5" ry="12.5" style="stroke:#181818;stroke-width:1.5;" width="234" x="693" y="1802.5"/><text fill="#000000" font-family="sans-serif" font-size="14" lengthAdjust="spacing" textLength="214" x="703" y="1825.4951">Consumo da API de navega&#231;&#227;o</text><path d="M643,1848.7969 L653,1848.7969 C668,1848.7969 668,1820.6484 683,1820.6484 L693,1820.6484 " fill="none" style="stroke:#181818;stroke-width:1.0;"/><rect fill="#F1F1F1" height="36.2969" rx="12.5" ry="12.5" style="stroke:#181818;stroke-width:1.5;" width="253" x="693" y="1858.7969"/><text fill="#000000" font-family="sans-serif" font-size="14" lengthAdjust="spacing" textLength="233" x="703" y="1881.792">Exibi&#231;&#227;o de evid&#234;ncia documental</text><path d="M643,1848.7969 L653,1848.7969 C668,1848.7969 668,1876.9453 683,1876.9453 L693,1876.9453 " fill="none" style="stroke:#181818;stroke-width:1.0;"/><rect fill="#F1F1F1" height="36.2969" rx="12.5" ry="12.5" style="stroke:#181818;stroke-width:1.5;" width="244" x="693" y="1915.0938"/><text fill="#000000" font-family="sans-serif" font-size="14" lengthAdjust="spacing" textLength="224" x="703" y="1938.0889">Formul&#225;rio de envio de pergunta</text><path d="M643,1848.7969 L653,1848.7969 C668,1848.7969 668,1933.2422 683,1933.2422 L693,1933.2422 " fill="none" style="stroke:#181818;stroke-width:1.0;"/><path d="M442,1679.9063 L452,1679.9063 C467,1679.9063 467,1848.7969 482,1848.7969 L492,1848.7969 " fill="none" style="stroke:#181818;stroke-width:1.0;"/><rect fill="#F1F1F1" height="36.2969" rx="12.5" ry="12.5" style="stroke:#181818;stroke-width:1.5;" width="186" x="492" y="2027.6875"/><text fill="#000000" font-family="sans-serif" font-size="14" lengthAdjust="spacing" textLength="166" x="502" y="2050.6826">Frontend - Autentica&#231;&#227;o</text><rect fill="#F1F1F1" height="36.2969" rx="12.5" ry="12.5" style="stroke:#181818;stroke-width:1.5;" width="108" x="728" y="1971.3906"/><text fill="#000000" font-family="sans-serif" font-size="14" lengthAdjust="spacing" textLength="88" x="738" y="1994.3857">Tela de login</text><path d="M678,2045.8359 L688,2045.8359 C703,2045.8359 703,1989.5391 718,1989.5391 L728,1989.5391 " fill="none" style="stroke:#181818;stroke-width:1.0;"/><rect fill="#F1F1F1" height="36.2969" rx="12.5" ry="12.5" style="stroke:#181818;stroke-width:1.5;" width="143" x="728" y="2027.6875"/><text fill="#000000" font-family="sans-serif" font-size="14" lengthAdjust="spacing" textLength="119" x="738" y="2050.6826">Recuperar senha</text><path d="M678,2045.8359 L688,2045.8359 C703,2045.8359 703,2045.8359 718,2045.8359 L728,2045.8359 " fill="none" style="stroke:#181818;stroke-width:1.0;"/><rect fill="#F1F1F1" height="36.2969" rx="12.5" ry="12.5" style="stroke:#181818;stroke-width:1.5;" width="143" x="728" y="2083.9844"/><text fill="#000000" font-family="sans-serif" font-size="14" lengthAdjust="spacing" textLength="123" x="738" y="2106.9795">Prote&#231;&#227;o de rotas</text><path d="M678,2045.8359 L688,2045.8359 C703,2045.8359 703,2102.1328 718,2102.1328 L728,2102.1328 " fill="none" style="stroke:#181818;stroke-width:1.0;"/><path d="M442,1679.9063 L452,1679.9063 C467,1679.9063 467,2045.8359 482,2045.8359 L492,2045.8359 " fill="none" style="stroke:#181818;stroke-width:1.0;"/><rect fill="#F1F1F1" height="36.2969" rx="12.5" ry="12.5" style="stroke:#181818;stroke-width:1.5;" width="116" x="492" y="2140.2813"/><text fill="#000000" font-family="sans-serif" font-size="14" lengthAdjust="spacing" textLength="96" x="502" y="2163.2764">UML (ARQ-02)</text><rect fill="#F1F1F1" height="36.2969" rx="12.5" ry="12.5" style="stroke:#181818;stroke-width:1.5;" width="165" x="658" y="2140.2813"/><text fill="#000000" font-family="sans-serif" font-size="14" lengthAdjust="spacing" textLength="145" x="668" y="2163.2764">Diagrama de Classes</text><path d="M608,2158.4297 L618,2158.4297 C633,2158.4297 633,2158.4297 648,2158.4297 L658,2158.4297 " fill="none" style="stroke:#181818;stroke-width:1.0;"/><path d="M442,1679.9063 L452,1679.9063 C467,1679.9063 467,2158.4297 482,2158.4297 L492,2158.4297 " fill="none" style="stroke:#181818;stroke-width:1.0;"/><rect fill="#F1F1F1" height="36.2969" rx="12.5" ry="12.5" style="stroke:#181818;stroke-width:1.5;" width="132" x="492" y="2252.875"/><text fill="#000000" font-family="sans-serif" font-size="14" lengthAdjust="spacing" textLength="112" x="502" y="2275.8701">Testes Unit&#225;rios</text><rect fill="#F1F1F1" height="36.2969" rx="12.5" ry="12.5" style="stroke:#181818;stroke-width:1.5;" width="387" x="674" y="2196.5781"/><text fill="#000000" font-family="sans-serif" font-size="14" lengthAdjust="spacing" textLength="367" x="684" y="2219.5732">Aluno: pergunta (RF05), satisfa&#231;&#227;o (RF07), log (RF08)</text><path d="M624,2271.0234 L634,2271.0234 C649,2271.0234 649,2214.7266 664,2214.7266 L674,2214.7266 " fill="none" style="stroke:#181818;stroke-width:1.0;"/><rect fill="#F1F1F1" height="36.2969" rx="12.5" ry="12.5" style="stroke:#181818;stroke-width:1.5;" width="302" x="674" y="2252.875"/><text fill="#000000" font-family="sans-serif" font-size="14" lengthAdjust="spacing" textLength="278" x="684" y="2275.8701">Aluno: menus (RF01), reposit&#243;rio (RF02)</text><path d="M624,2271.0234 L634,2271.0234 C649,2271.0234 649,2271.0234 664,2271.0234 L674,2271.0234 " fill="none" style="stroke:#181818;stroke-width:1.0;"/><rect fill="#F1F1F1" height="36.2969" rx="12.5" ry="12.5" style="stroke:#181818;stroke-width:1.5;" width="417" x="674" y="2309.1719"/><text fill="#000000" font-family="sans-serif" font-size="14" lengthAdjust="spacing" textLength="397" x="684" y="2332.167">Secret&#225;ria: listar perguntas (RF06), atualizar status (RF06)</text><path d="M624,2271.0234 L634,2271.0234 C649,2271.0234 649,2327.3203 664,2327.3203 L674,2327.3203 " fill="none" style="stroke:#181818;stroke-width:1.0;"/><path d="M442,1679.9063 L452,1679.9063 C467,1679.9063 467,2271.0234 482,2271.0234 L492,2271.0234 " fill="none" style="stroke:#181818;stroke-width:1.0;"/><rect fill="#F1F1F1" height="36.2969" rx="12.5" ry="12.5" style="stroke:#181818;stroke-width:1.5;" width="161" x="492" y="2365.4688"/><text fill="#000000" font-family="sans-serif" font-size="14" lengthAdjust="spacing" textLength="137" x="502" y="2388.4639">Deploy da aplica&#231;&#227;o</text><path d="M442,1679.9063 L452,1679.9063 C467,1679.9063 467,2383.6172 482,2383.6172 L492,2383.6172 " fill="none" style="stroke:#181818;stroke-width:1.0;"/><rect fill="#F1F1F1" height="36.2969" rx="12.5" ry="12.5" style="stroke:#181818;stroke-width:1.5;" width="626" x="10" y="2759.5469"/><text fill="#FF0000" font-family="sans-serif" font-size="14" lengthAdjust="spacing" textLength="4" x="20" y="2782.542">&#160;</text><text fill="#FF0000" font-family="sans-serif" font-size="14" font-weight="bold" lengthAdjust="spacing" textLength="597" x="29" y="2782.542">Sprint 3 &#8212; Painel Administrativo + Documenta&#231;&#227;o + Diagrama de Sequ&#234;ncia</text><rect fill="#F1F1F1" height="36.2969" rx="12.5" ry="12.5" style="stroke:#181818;stroke-width:1.5;" width="229" x="686" y="2421.7656"/><text fill="#000000" font-family="sans-serif" font-size="14" lengthAdjust="spacing" textLength="209" x="696" y="2444.7607">Avalia&#231;&#227;o de Satisfa&#231;&#227;o (RF07)</text><rect fill="#F1F1F1" height="36.2969" rx="12.5" ry="12.5" style="stroke:#181818;stroke-width:1.5;" width="291" x="965" y="2421.7656"/><text fill="#000000" font-family="sans-serif" font-size="14" lengthAdjust="spacing" textLength="271" x="975" y="2444.7607">Componente visual (Gostei/N&#227;o gostei)</text><path d="M915,2439.9141 L925,2439.9141 C940,2439.9141 940,2439.9141 955,2439.9141 L965,2439.9141 " fill="none" style="stroke:#181818;stroke-width:1.0;"/><path d="M636,2777.6953 L646,2777.6953 C661,2777.6953 661,2439.9141 676,2439.9141 L686,2439.9141 " fill="none" style="stroke:#181818;stroke-width:1.0;"/><rect fill="#F1F1F1" height="36.2969" rx="12.5" ry="12.5" style="stroke:#181818;stroke-width:1.5;" width="184" x="686" y="2534.3594"/><text fill="#000000" font-family="sans-serif" font-size="14" lengthAdjust="spacing" textLength="164" x="696" y="2557.3545">Frontend - Painel Admin</text><rect fill="#F1F1F1" height="36.2969" rx="12.5" ry="12.5" style="stroke:#181818;stroke-width:1.5;" width="214" x="920" y="2478.0625"/><text fill="#000000" font-family="sans-serif" font-size="14" lengthAdjust="spacing" textLength="194" x="930" y="2501.0576">CRUD de n&#243;s de navega&#231;&#227;o</text><path d="M870,2552.5078 L880,2552.5078 C895,2552.5078 895,2496.2109 910,2496.2109 L920,2496.2109 " fill="none" style="stroke:#181818;stroke-width:1.0;"/><rect fill="#F1F1F1" height="36.2969" rx="12.5" ry="12.5" style="stroke:#181818;stroke-width:1.5;" width="295" x="920" y="2534.3594"/><text fill="#000000" font-family="sans-serif" font-size="14" lengthAdjust="spacing" textLength="275" x="930" y="2557.3545">Gerenciamento de usu&#225;rios (Secret&#225;ria)</text><path d="M870,2552.5078 L880,2552.5078 C895,2552.5078 895,2552.5078 910,2552.5078 L920,2552.5078 " fill="none" style="stroke:#181818;stroke-width:1.0;"/><rect fill="#F1F1F1" height="36.2969" rx="12.5" ry="12.5" style="stroke:#181818;stroke-width:1.5;" width="260" x="920" y="2590.6563"/><text fill="#000000" font-family="sans-serif" font-size="14" lengthAdjust="spacing" textLength="240" x="930" y="2613.6514">Visualiza&#231;&#227;o de logs de navega&#231;&#227;o</text><path d="M870,2552.5078 L880,2552.5078 C895,2552.5078 895,2608.8047 910,2608.8047 L920,2608.8047 " fill="none" style="stroke:#181818;stroke-width:1.0;"/><path d="M636,2777.6953 L646,2777.6953 C661,2777.6953 661,2552.5078 676,2552.5078 L686,2552.5078 " fill="none" style="stroke:#181818;stroke-width:1.0;"/><rect fill="#F1F1F1" height="36.2969" rx="12.5" ry="12.5" style="stroke:#181818;stroke-width:1.5;" width="231" x="686" y="2646.9531"/><text fill="#000000" font-family="sans-serif" font-size="14" lengthAdjust="spacing" textLength="211" x="696" y="2669.9482">Frontend - Painel da Secret&#225;ria</text><rect fill="#F1F1F1" height="36.2969" rx="12.5" ry="12.5" style="stroke:#181818;stroke-width:1.5;" width="345" x="967" y="2646.9531"/><text fill="#000000" font-family="sans-serif" font-size="14" lengthAdjust="spacing" textLength="325" x="977" y="2669.9482">Listagem de perguntas + atualiza&#231;&#227;o de status</text><path d="M917,2665.1016 L927,2665.1016 C942,2665.1016 942,2665.1016 957,2665.1016 L967,2665.1016 " fill="none" style="stroke:#181818;stroke-width:1.0;"/><path d="M636,2777.6953 L646,2777.6953 C661,2777.6953 661,2665.1016 676,2665.1016 L686,2665.1016 " fill="none" style="stroke:#181818;stroke-width:1.0;"/><rect fill="#F1F1F1" height="36.2969" rx="12.5" ry="12.5" style="stroke:#181818;stroke-width:1.5;" width="245" x="686" y="2759.5469"/><text fill="#000000" font-family="sans-serif" font-size="14" lengthAdjust="spacing" textLength="225" x="696" y="2782.542">Documenta&#231;&#227;o (RNF07 / RNF03)</text><rect fill="#F1F1F1" height="36.2969" rx="12.5" ry="12.5" style="stroke:#181818;stroke-width:1.5;" width="277" x="981" y="2703.25"/><text fill="#000000" font-family="sans-serif" font-size="14" lengthAdjust="spacing" textLength="257" x="991" y="2726.2451">README raiz + /frontend + /backend</text><path d="M931,2777.6953 L941,2777.6953 C956,2777.6953 956,2721.3984 971,2721.3984 L981,2721.3984 " fill="none" style="stroke:#181818;stroke-width:1.0;"/><rect fill="#F1F1F1" height="36.2969" rx="12.5" ry="12.5" style="stroke:#181818;stroke-width:1.5;" width="304" x="981" y="2759.5469"/><text fill="#000000" font-family="sans-serif" font-size="14" lengthAdjust="spacing" textLength="284" x="991" y="2782.542">Modelo de dados, arquitetura, instru&#231;&#245;es</text><path d="M931,2777.6953 L941,2777.6953 C956,2777.6953 956,2777.6953 971,2777.6953 L981,2777.6953 " fill="none" style="stroke:#181818;stroke-width:1.0;"/><rect fill="#F1F1F1" height="36.2969" rx="12.5" ry="12.5" style="stroke:#181818;stroke-width:1.5;" width="266" x="981" y="2815.8438"/><text fill="#000000" font-family="sans-serif" font-size="14" lengthAdjust="spacing" textLength="246" x="991" y="2838.8389">Rotas da API: Swagger + Markdown</text><path d="M931,2777.6953 L941,2777.6953 C956,2777.6953 956,2833.9922 971,2833.9922 L981,2833.9922 " fill="none" style="stroke:#181818;stroke-width:1.0;"/><path d="M636,2777.6953 L646,2777.6953 C661,2777.6953 661,2777.6953 676,2777.6953 L686,2777.6953 " fill="none" style="stroke:#181818;stroke-width:1.0;"/><rect fill="#F1F1F1" height="36.2969" rx="12.5" ry="12.5" style="stroke:#181818;stroke-width:1.5;" width="116" x="686" y="2872.1406"/><text fill="#000000" font-family="sans-serif" font-size="14" lengthAdjust="spacing" textLength="96" x="696" y="2895.1357">UML (ARQ-03)</text><rect fill="#F1F1F1" height="36.2969" rx="12.5" ry="12.5" style="stroke:#181818;stroke-width:1.5;" width="184" x="852" y="2872.1406"/><text fill="#000000" font-family="sans-serif" font-size="14" lengthAdjust="spacing" textLength="164" x="862" y="2895.1357">Diagrama de Sequ&#234;ncia</text><path d="M802,2890.2891 L812,2890.2891 C827,2890.2891 827,2890.2891 842,2890.2891 L852,2890.2891 " fill="none" style="stroke:#181818;stroke-width:1.0;"/><path d="M636,2777.6953 L646,2777.6953 C661,2777.6953 661,2890.2891 676,2890.2891 L686,2890.2891 " fill="none" style="stroke:#181818;stroke-width:1.0;"/><rect fill="#F1F1F1" height="36.2969" rx="12.5" ry="12.5" style="stroke:#181818;stroke-width:1.5;" width="240" x="686" y="3012.8828"/><text fill="#000000" font-family="sans-serif" font-size="14" lengthAdjust="spacing" textLength="220" x="696" y="3035.8779">Testes Unit&#225;rios - Administrador</text><rect fill="#F1F1F1" height="36.2969" rx="12.5" ry="12.5" style="stroke:#181818;stroke-width:1.5;" width="279" x="976" y="2928.4375"/><text fill="#000000" font-family="sans-serif" font-size="14" lengthAdjust="spacing" textLength="259" x="986" y="2951.4326">Gerenciar documentos oficiais (RF04)</text><path d="M926,3031.0313 L936,3031.0313 C951,3031.0313 951,2946.5859 966,2946.5859 L976,2946.5859 " fill="none" style="stroke:#181818;stroke-width:1.0;"/><rect fill="#F1F1F1" height="36.2969" rx="12.5" ry="12.5" style="stroke:#181818;stroke-width:1.5;" width="268" x="976" y="2984.7344"/><text fill="#000000" font-family="sans-serif" font-size="14" lengthAdjust="spacing" textLength="248" x="986" y="3007.7295">Gerenciar n&#243;s de navega&#231;&#227;o (RF04)</text><path d="M926,3031.0313 L936,3031.0313 C951,3031.0313 951,3002.8828 966,3002.8828 L976,3002.8828 " fill="none" style="stroke:#181818;stroke-width:1.0;"/><rect fill="#F1F1F1" height="36.2969" rx="12.5" ry="12.5" style="stroke:#181818;stroke-width:1.5;" width="200" x="976" y="3041.0313"/><text fill="#000000" font-family="sans-serif" font-size="14" lengthAdjust="spacing" textLength="180" x="986" y="3064.0264">Gerenciar usu&#225;rios (RF04)</text><path d="M926,3031.0313 L936,3031.0313 C951,3031.0313 951,3059.1797 966,3059.1797 L976,3059.1797 " fill="none" style="stroke:#181818;stroke-width:1.0;"/><rect fill="#F1F1F1" height="36.2969" rx="12.5" ry="12.5" style="stroke:#181818;stroke-width:1.5;" width="268" x="976" y="3097.3281"/><text fill="#000000" font-family="sans-serif" font-size="14" lengthAdjust="spacing" textLength="248" x="986" y="3120.3232">Visualizar logs de navega&#231;&#227;o (RF04)</text><path d="M926,3031.0313 L936,3031.0313 C951,3031.0313 951,3115.4766 966,3115.4766 L976,3115.4766 " fill="none" style="stroke:#181818;stroke-width:1.0;"/><path d="M636,2777.6953 L646,2777.6953 C661,2777.6953 661,3031.0313 676,3031.0313 L686,3031.0313 " fill="none" style="stroke:#181818;stroke-width:1.0;"/><!--SRC=[bLVDSXf74Bxp57r4CZBwiHoRShcC02bIGCQ0dADhs1qjKrvcqFpWoAUSyW2fF41SEQJALJwvSicLD_6Jv9lPPNUHaIk-mBBJqztpzTTV3o-CPThEXOpdR56pmgQS1cp1YFQexQnYbijOpBcqYiOyqXpcWb4xOl7gurn4Z4xRarw7BbZ4D5zzgjLswLcaKgLRSn5BaSpiD7NyEJqxUJvUQ24j7T2NN_-W4sOunGhVqLk4e0VK5IpHRCuevjHXHXd_S6KKrNPtgQFajKYSPgk_LtyfujIUJmMoubG_lppTsp_OWTKkZVX26M5NdxLGS3cvNV1nfCN2XjMkGYmDNtDOOUTG6PjeFdxLXssPoAbMqX_RkyHh6IcVIPV5IAb-qYs23LJCKvRmEGrwesQtDmfl5qcaRnTMDOXBDpSDicmACtA6QnCi9jaBoPOYOLOe-KR2KtNDjEZ6SUFNu02WSSsYO9cg16yCjfdh_9N63vbasr-E1ZJKmW35-keJAXTncBj5Z3h6RvWDHxfaIvxaG0BN9V9Y4JonbEgZq_NfpdeJQbhDES1kjapgajfTW7sXb9pnA2U8ttrOxewGlKijy_l09PY0BrbORtdKnCVJp7puSenepDbP4oSKahxyzZjT_3m9YoS1K1Hc2UwjFYov2DHWEGD2MYVj3l8SQcLv4U5W7n4EriKISPpoTo0fm8LdkDCg3PlFWBJV0fz3hXCdBJEWVqRtrGVFTv_lu_9aYyAidWfq49oTTmEsfro3mpoiTVaoPsSEolWTIn8Gy05T8AGtlnhqgTuUlIeuTLyJUEC9Dd53LrA4h5HMyaraMvJXLm_ODW1PAk8STAj0y00CWfLzYWxWijgWXw51HygVOUZCh45ziEvkXuAb9f2smAyTp_F8ZqgevEfpE8EiaAuA6XMMphZiMFUiU-hVzHGMEwEhhb-eEAZKBa-5QouZmJAYnbvw8XT-65BN0Yl2_F_Uy7HjqF3AVxGddHyRrEtrUvFUjjDcbUSy3b63Y0XP1kp9Y06sMPxPwi-gpFgGnzKEALI1wl7gtoLA2vJutfo9TEVxgHnohpXjjaJS1FBMcVlNKNQHoD3JdbmvLWWupaIfRF0Vgfc3AwQCKT4lxwcVbxQAllVmfEh1rx-QblyDOShydiVDKa-_PRK-J6ZMNEY1K6V6x5HbOwBFRfMpFfy8Rwa-LUcCGKRL0fdzumNLHD2ED4kkurLk3WGm5OVdsuhV-qLCHG4JHzLM7pqN2mwoDDYTAZrtQQ1mC9JBx66jDdTItcpyR7hukO8TGGFoWHWvx6UQ30V9ieQfo2ICjM_qJJ4wt296PR_VeqEfav2VTR8vTujPLQL5moTOBN2-5rWua_TPWtHrr6IZXV9cAjWCkVDIeQkA7FZT8B0Oz7plJnuONH8Vmhn8rQsl65kanKogIABcSH14oXNnA2ZYa0d9qqpc4DNFtQM_PNJNPSpyREhacD-uhDpVqJBXXYB3zMOfZFFYSuQx2XVDIs-PXEUTEtoefhUXY_U9qbUQ-2q1VHto09v5yblqU7j6mBdYBcinNpL_SwhGsq-OTT6A88KQtKMvFhe4NDGa_tsKt_vwxUwWHvg9z_3Ll5vdWkTfThihxssga6DGHTyuORd5zTBVjb1QbtLwvZKCmgozMvKPFc3wRQpUoStMEVgwTJOfy5Nt-5OkA1KhlL4RlMrGRSpOmd3hfDrcM2bpkLpKLsyTjBbbxGL0NFzRg0rJ9gq_kX-Jq5GwU7YuV_ZeuN5zx2JmkQN3nxJ_j7Lmt3f-GbUJ3ldbdLhzRDWdevoEK09_R35rNfDtQXTioMW4Dk16sQAN2oulkZ-jNs1MBWLgwj6eNRmUb0QF7-sT20kWDJAXruDQbrypN3tzT5KnRiSjH3_TUrBhCvau4Ay5TQrr5FpgMwoD_mC0]--></g></svg>